# xmcd
#
# Track frame offsets: 
#        151
#        14053
#        26961
#        41387
#        51296
#        63082
#        73608
#        91912
#        101603
#        114121
#        125545
#        136460
#        148712
#
# Disc length: 2146 seconds
#
# Revision: 0
# Processed by: cddbd v1.5.2PL0 Copyright (c) Steve Scherf et al.
# Submitted via: ExactAudioCopyFreeDBPlugin 1.0
#
DISCID=b608600d
DTITLE=David Grier (and others) - Bluegrass Railroad
DYEAR=2006
DGENRE=Bluegrass
TTITLE0=John Henry
TTITLE1=Wabash Cannonball
TTITLE2=Freight Train
TTITLE3=Train 45
TTITLE4=Life's Railway To Heaven
TTITLE5=Wreck Of The Old 97
TTITLE6=Kansas City Railroad Blues
TTITLE7=Orange Blossom Special
TTITLE8=City Of New Orleans
TTITLE9=Fireball Mail
TTITLE10=Nine Pound Hammer
TTITLE11=Glendale Train
TTITLE12=Reuben's Train
EXTD=
EXTT0=
EXTT1=
EXTT2=
EXTT3=
EXTT4=
EXTT5=
EXTT6=
EXTT7=
EXTT8=
EXTT9=
EXTT10=
EXTT11=
EXTT12=
PLAYORDER=
